<svg xmlns="http://www.w3.org/2000/svg" xmlns:xlink="http://www.w3.org/1999/xlink" version="1.1" id="Logo" x="0px" y="0px" viewBox="0 0 500 206.5" style="enable-background:new 0 0 500 206.5;" xml:space="preserve">
<style type="text/css">
    .st0{fill:#323333;}
    .st1{fill:#BF3088;}
</style>
<g>
    <path class="st0" d="M258.2,127.7c23.1-1.2,42.6-20.2,43.1-42.8c0.4-22,0.1-43.9,0.1-65.9c0-3.8-2.4-6.9-5.8-8.1         c-6.2-2.1-11.7,2.1-11.8,9.2c-0.1,8.4,0,16.8,0,25.8c-1.2-0.7-1.7-1-2.2-1.4c-16.8-10.7-34-11.3-50.5-0.5         c-16.5,10.7-23,26.6-20,46.1C214.4,112.3,235.4,128.9,258.2,127.7z M255.9,54.3c15.4,0,27.9,12.4,27.9,27.8c0,15.5-12.5,28-28.1,28         c-15.3-0.1-27.7-12.5-27.7-28C228,66.7,240.5,54.3,255.9,54.3z"/>
    <path class="st0" d="M416.2,91.6c5.3,0,10.7-0.1,16,0.1c6.1,0.3,10,4.1,9.8,9.5c-0.1,5.3-4.3,8.8-10.4,8.8h-28.2         c-6.1,0-9.9,3.4-10,8.7c-0.1,5.4,3.8,9,10.1,9h28.5c15.6,0,27.5-11.5,27.7-26.6c0.1-15.3-11.7-26.9-27.5-26.9c-5,0-10,0.2-15-0.1         c-2.1-0.1-4.5-0.8-6.3-2c-3.3-2.1-4.3-6.2-3.2-9.8c1.2-3.9,4.7-6.5,9.3-6.5c10-0.1,20,0,29.9-0.1c5.6,0,9.3-3.5,9.3-8.6         c0.1-5.3-3.6-8.9-9.3-9c-5.2-0.1-10.5,0-15.7,0h-15c-14.9,0.1-26.5,12-26.4,26.9C389.8,80,401.3,91.6,416.2,91.6z"/>
    <path class="st0" d="M348.7,127.7c13.3,0.6,25-3.7,34.5-13.2c2.8-2.9,3.4-6.9,1.9-10.2c-1.6-3.4-5.2-5.6-9.1-4.8         c-2.1,0.5-4.4,1.9-6.1,3.4c-10.1,9-24.9,9.7-35.7,1.5c-10.6-8.1-14-22.6-8.1-34.5c8.4-16.9,29.6-20.7,44.3-7.9         c4.6,4,9.8,4.1,13.3,0.3c3.5-3.9,2.9-9.6-1.6-13.5c-14.7-12.7-31.3-15.8-49-8.2c-17.8,7.6-26.5,22.2-27.4,38.1         C305.4,106.3,324.4,126.6,348.7,127.7z"/>
    <path class="st0" d="M473,127.7c5.3,0.1,8.8-4,8.8-10.2V69V20.2c0-6.1-3.5-9.9-8.8-9.8c-5.3,0.1-8.8,3.9-8.8,10v97.2         C464.3,123.7,467.7,127.7,473,127.7z"/>
    <path class="st1" d="M240.2,159.6c-0.7,0-1.3,0.2-1.8,0.7c-0.5,0.5-0.7,1.1-0.7,1.8v8.8c0,0.4-0.3,0.7-0.7,0.7h-1.3         c-1.6,0-3.1-0.3-4.6-0.9c-1.4-0.6-2.7-1.5-3.7-2.5c-1.1-1.1-1.9-2.3-2.5-3.7c-0.6-1.4-0.9-2.9-0.9-4.6c0-1.6,0.3-3.1,0.9-4.6         c0.6-1.4,1.4-2.7,2.5-3.7c1.1-1.1,2.3-1.9,3.7-2.5c1.4-0.6,2.9-0.9,4.6-0.9h3.5c0.7,0,1.3-0.2,1.8-0.7c0.5-0.5,0.7-1.1,0.7-1.8         c0-0.5-0.1-1-0.4-1.4c-0.5-0.7-1.5-1.1-2.4-1.1h-3.3c-0.2,0-0.5,0-0.7,0c-0.2,0-0.5,0-0.7,0c-2.1,0.2-4.1,0.8-6,1.7         c-1.9,0.9-3.5,2.2-4.9,3.6c-1.4,1.5-2.5,3.2-3.3,5.1c-0.8,1.9-1.2,4-1.2,6.2c0,2.3,0.4,4.5,1.3,6.5c0.9,2,2.1,3.8,3.6,5.3         c1.5,1.5,3.3,2.7,5.3,3.6c2,0.9,4.2,1.3,6.5,1.3h2.6c2.4,0,4.4-2,4.4-4.4v-10.1c0-0.7-0.2-1.3-0.7-1.8         C241.5,159.9,240.9,159.6,240.2,159.6z"/>
    <path class="st1" d="M267.7,151.1c-0.6,0-1.1,0.2-1.6,0.7c-0.4,0.5-0.7,1-0.7,1.6v11.4c0,1-0.2,1.9-0.6,2.8         c-0.4,0.9-0.9,1.6-1.6,2.3c-0.7,0.7-1.4,1.2-2.3,1.6c-0.9,0.4-1.8,0.6-2.8,0.6c-1,0-1.9-0.2-2.8-0.6c-0.9-0.4-1.6-0.9-2.3-1.6         c-0.7-0.7-1.2-1.4-1.6-2.3c-0.4-0.9-0.6-1.8-0.6-2.8v-11.4c0-0.6-0.2-1.2-0.7-1.6c-0.4-0.5-1-0.7-1.6-0.7c-0.6,0-1.1,0.2-1.6,0.7         c-0.4,0.5-0.7,1-0.7,1.6v11.5c0,1.6,0.3,3.2,0.9,4.6c0.6,1.4,1.5,2.7,2.5,3.7c1.1,1.1,2.3,1.9,3.7,2.5c1.4,0.6,3,0.9,4.6,0.9         c1.6,0,3.1-0.3,4.6-0.9c1.4-0.6,2.7-1.5,3.7-2.5c1.1-1.1,1.9-2.3,2.5-3.7c0.6-1.4,0.9-3,0.9-4.6v-11.5c0-0.6-0.2-1.2-0.7-1.6         C268.9,151.4,268.4,151.1,267.7,151.1z"/>
    <path class="st1" d="M277.5,143.1c-0.7,0-1.3,0.2-1.8,0.7c-0.5,0.5-0.7,1.1-0.7,1.7c0,0.7,0.2,1.3,0.7,1.8c0.5,0.5,1.1,0.7,1.8,0.7         c0.7,0,1.2-0.2,1.7-0.7s0.7-1.1,0.7-1.8c0-0.7-0.2-1.2-0.7-1.7C278.8,143.4,278.2,143.1,277.5,143.1z"/>
    <path class="st1" d="M276.3,151c-0.7,0-1.3,0.2-1.8,0.7c-0.5,0.5-0.7,1.1-0.7,1.7v20.7c0,1.4,1.1,2.5,2.5,2.5         c1.4,0,2.5-1.1,2.5-2.5v-20.7c0-0.7-0.2-1.2-0.7-1.7C277.6,151.2,277,151,276.3,151z"/>
    <path class="st1" d="M305.8,143.2c-0.6,0-1.2,0.2-1.7,0.7c-0.5,0.5-0.7,1-0.7,1.7v8.2c-1.1-0.9-2.3-1.6-3.6-2.1         c-1.3-0.5-2.8-0.7-4.3-0.7c-1.8,0-3.4,0.3-5,1c-1.6,0.7-2.9,1.6-4.1,2.7c-1.2,1.2-2.1,2.5-2.8,4.1c-0.7,1.6-1,3.2-1,5         c0,1.8,0.3,3.4,1,5c0.7,1.6,1.6,2.9,2.8,4.1c1.2,1.2,2.5,2.1,4.1,2.8c1.6,0.7,3.2,1,5,1c1.8,0,3.4-0.3,5-1c1.5-0.7,2.9-1.6,4.1-2.8         c1.2-1.2,2.1-2.5,2.8-4.1c0.7-1.6,1-3.2,1-5v-18.3c0-0.6-0.2-1.2-0.7-1.7C307.1,143.5,306.5,143.2,305.8,143.2z M303.1,167.1         c-0.4,1-1,1.9-1.8,2.6c-0.8,0.8-1.6,1.3-2.7,1.8c-1,0.4-2.1,0.7-3.2,0.7c-1.1,0-2.2-0.2-3.2-0.7c-1-0.4-1.9-1-2.7-1.8         c-0.8-0.8-1.4-1.6-1.8-2.6c-0.4-1-0.7-2.1-0.7-3.2c0-1.1,0.2-2.2,0.7-3.2c0.4-1,1-1.9,1.8-2.6c0.8-0.8,1.6-1.3,2.7-1.8         c1-0.4,2.1-0.7,3.2-0.7c1.1,0,2.2,0.2,3.2,0.7c1,0.4,1.9,1,2.7,1.8c0.8,0.8,1.4,1.6,1.8,2.6c0.4,1,0.7,2.1,0.7,3.2         C303.8,165,303.5,166.1,303.1,167.1z"/>
    <path class="st1" d="M334.1,154.7c-1.2-1.2-2.5-2.1-4.1-2.8c-1.6-0.7-3.2-1-5-1c-1.8,0-3.5,0.3-5.1,1c-1.6,0.7-2.9,1.6-4.1,2.7         c-1.2,1.2-2.1,2.5-2.7,4.1c-0.7,1.6-1,3.2-1,5c0,1.7,0.3,3.4,1,5c0.7,1.6,1.6,2.9,2.8,4.1c1.2,1.2,2.5,2.1,4.1,2.8         c1.5,0.7,3.2,1,4.9,1c1.7,0,3.3-0.3,4.9-0.9c1.6-0.6,3-1.6,4.3-2.8c0.5-0.5,0.7-1,0.7-1.6c0-0.6-0.2-1.1-0.7-1.6         c-0.5-0.4-1-0.6-1.6-0.6c-0.6,0-1.2,0.2-1.6,0.6c-0.8,0.8-1.7,1.4-2.8,1.8c-1,0.4-2.1,0.6-3.2,0.6c-0.9,0-1.7-0.1-2.5-0.4         c-0.8-0.3-1.6-0.7-2.3-1.2c-0.7-0.5-1.3-1.1-1.9-1.8c-0.5-0.7-0.9-1.5-1.2-2.3h18.4c0.7,0,1.2-0.2,1.7-0.7c0.5-0.5,0.7-1.1,0.7-1.7         c0-1.8-0.3-3.4-1-5C336.2,157.2,335.3,155.9,334.1,154.7z M317.1,161.3c0.3-0.8,0.7-1.6,1.2-2.3c0.5-0.7,1.1-1.3,1.8-1.9         c0.7-0.5,1.5-0.9,2.3-1.2c0.8-0.3,1.7-0.4,2.7-0.4c0.9,0,1.8,0.1,2.6,0.4c0.8,0.3,1.6,0.7,2.3,1.2c0.7,0.5,1.3,1.1,1.8,1.9         c0.5,0.7,0.9,1.5,1.2,2.3H317.1z"/>
    <path class="st1" d="M360,159.6c-0.9-0.9-1.9-1.6-3.1-2.2c-1.2-0.5-2.4-0.8-3.8-0.8h-3.5c-0.6,0-1.1-0.1-1.7-0.3s-1-0.5-1.4-0.9         c-0.4-0.4-0.7-0.8-0.9-1.3c-0.2-0.5-0.3-1.1-0.3-1.7c0-0.6,0.1-1.1,0.3-1.7c0.2-0.5,0.5-1,0.9-1.3c0.4-0.4,0.8-0.7,1.4-0.9         c0.5-0.2,1.1-0.3,1.7-0.3l9.2-0.1c0.7,0,1.2-0.2,1.7-0.7c0.5-0.5,0.7-1,0.7-1.8c0-0.7-0.2-1.3-0.7-1.7c-0.5-0.5-1.1-0.7-1.7-0.7         h-9.2c-1.3,0-2.5,0.2-3.6,0.7c-1.1,0.5-2.1,1.1-2.9,2c-0.8,0.8-1.5,1.8-2,2.9c-0.5,1.1-0.7,2.3-0.7,3.6c0,1.2,0.2,2.2,0.6,3.3         c0.4,1,0.9,1.9,1.6,2.7c0.7,0.8,1.5,1.5,2.4,2c0.9,0.5,1.9,0.9,3,1.1c0.3,0,0.5,0.1,0.8,0.1c0.3,0,0.5,0,0.8,0h3.2         c0.7,0,1.3,0.1,1.9,0.4c0.6,0.3,1.2,0.6,1.6,1.1c0.5,0.5,0.8,1,1.1,1.6c0.3,0.6,0.4,1.3,0.4,2c0,0.7-0.1,1.4-0.4,2         c-0.3,0.6-0.6,1.1-1.1,1.6c-0.5,0.4-1,0.8-1.6,1c-0.6,0.3-1.3,0.4-1.9,0.4H343c-1.4,0-2.5,1.1-2.5,2.5c0,1.4,1.1,2.5,2.5,2.5h9.8         c1.4,0,2.7-0.3,3.9-0.8c1.2-0.5,2.3-1.3,3.2-2.2c0.9-0.9,1.6-2,2.2-3.2c0.5-1.2,0.8-2.5,0.8-3.9c0-1.4-0.2-2.7-0.7-3.9         C361.5,161.6,360.9,160.5,360,159.6z"/>
    <path class="st1" d="M404.6,157.4c-0.3-0.7-0.6-1.3-1-1.9c-0.4-0.6-0.9-1.1-1.4-1.7c-1.1-1.1-2.3-1.9-3.7-2.4         c-1.4-0.4-2.9-0.7-4.5-0.7c-0.8,0-1.6,0.1-2.4,0.3c-0.8,0.2-1.6,0.5-2.3,0.9c-0.7,0.4-1.4,0.8-1.9,1.3c-0.6,0.5-1,1-1.3,1.6         c-0.3-0.6-0.8-1.1-1.4-1.6c-0.6-0.5-1.2-1-1.9-1.3c-0.7-0.4-1.4-0.7-2.2-0.9c-0.8-0.2-1.6-0.3-2.4-0.3c-1.6,0-3.1,0.3-4.5,0.8         c-1.4,0.5-2.6,1.3-3.7,2.3c-1,1-1.9,2.2-2.5,3.6c-0.6,1.4-0.9,3-0.9,4.8v12c0,1.2,1,2.2,2.2,2.2c1.2,0,2.2-1,2.2-2.2v-11.9         c0-1.1,0.2-2.1,0.5-2.9c0.3-0.9,0.8-1.6,1.4-2.2c0.6-0.6,1.3-1.1,2.1-1.4c0.8-0.3,1.6-0.5,2.5-0.5c1,0,1.9,0.2,2.6,0.6         c0.8,0.4,1.4,0.9,1.9,1.5c0.5,0.6,0.9,1.4,1.1,2.2c0.3,0.8,0.4,1.7,0.4,2.7v11.9c0,1.2,1,2.2,2.2,2.2h0.3c1.2,0,2.2-1,2.2-2.2         v-12.4c0.1-0.8,0.3-1.6,0.6-2.4c0.3-0.8,0.7-1.5,1.2-2.1c0.5-0.6,1.1-1.1,1.8-1.5c0.7-0.4,1.5-0.5,2.3-0.5h0.1         c0.9,0,1.8,0.2,2.6,0.5c0.8,0.3,1.5,0.8,2.1,1.4c0.6,0.6,1.1,1.3,1.4,2.2c0.3,0.9,0.5,1.8,0.5,2.9v11.9c0,1.2,1,2.2,2.2,2.2h0         c1.2,0,2.2-1,2.2-2.2v-12c0-1-0.1-1.9-0.2-2.7C405.1,158.9,404.9,158.1,404.6,157.4z"/>
    <path class="st1" d="M413,143.1c-0.7,0-1.3,0.2-1.8,0.7c-0.5,0.5-0.7,1.1-0.7,1.7c0,0.7,0.2,1.3,0.7,1.8c0.5,0.5,1.1,0.7,1.8,0.7         c0.7,0,1.2-0.2,1.7-0.7s0.7-1.1,0.7-1.8c0-0.7-0.2-1.2-0.7-1.7C414.2,143.4,413.6,143.1,413,143.1z"/>
    <path class="st1" d="M411.8,151c-0.7,0-1.3,0.2-1.8,0.7c-0.5,0.5-0.7,1.1-0.7,1.7v20.7c0,1.4,1.1,2.5,2.5,2.5         c1.4,0,2.5-1.1,2.5-2.5v-20.7c0-0.7-0.2-1.2-0.7-1.7C413,151.2,412.4,151,411.8,151z"/>
    <path class="st1" d="M427.2,150.1H425v-4.3c0-0.6-0.2-1.1-0.6-1.6c-0.4-0.5-0.9-0.7-1.6-0.7h-0.2c-0.7,0-1.3,0.2-1.7,0.7         c-0.4,0.4-0.7,1-0.7,1.6v4.5h-2.2c-0.6,0-1.2,0.2-1.7,0.7c-0.5,0.5-0.7,1-0.7,1.7c0,0.7,0.2,1.3,0.7,1.7c0.5,0.5,1,0.7,1.7,0.7h2.2         v19.4c0,1.3,1.1,2.4,2.4,2.4s2.4-1.1,2.4-2.4v-19.4h2.2c0.6,0,1.2-0.2,1.7-0.7c0.5-0.5,0.7-1,0.7-1.7c0-0.6-0.2-1.2-0.7-1.7         C428.4,150.3,427.8,150.1,427.2,150.1z"/>
    <path class="st1" d="M452.7,154.6c-1.1-1.2-2.5-2.1-4-2.8c-1.5-0.7-3.2-1-4.9-1c-1.4,0-2.8,0.2-4.1,0.7c-1.3,0.5-2.4,1.1-3.5,1.9         v-7.7c0-0.7-0.2-1.3-0.7-1.7c-0.5-0.5-1.1-0.7-1.7-0.7c-0.7,0-1.3,0.2-1.8,0.7c-0.5,0.5-0.7,1-0.7,1.7v28.8c0,1.3,1,2.3,2.3,2.3         h0.4c1.3,0,2.3-1,2.3-2.3v-13.3c0.2-0.8,0.6-1.6,1.1-2.3c0.5-0.7,1-1.3,1.7-1.8c0.6-0.5,1.4-0.9,2.2-1.2c0.8-0.3,1.7-0.4,2.6-0.4         c1.1,0,2.2,0.2,3.1,0.7c1,0.4,1.8,1,2.5,1.8c0.7,0.8,1.3,1.6,1.7,2.7c0.4,1,0.6,2.1,0.6,3.2v10.7c0,1.3,1,2.3,2.3,2.3         s2.3-1,2.3-2.3v-10.7h0c0-1.8-0.3-3.4-0.9-5C454.7,157.1,453.8,155.7,452.7,154.6z"/>
    <path class="st1" d="M479.6,165.7c-0.4-1-0.9-1.8-1.6-2.5c-0.7-0.7-1.5-1.3-2.4-1.7c-0.9-0.4-1.9-0.6-3-0.6h-5.4         c-0.7,0-1.3-0.2-1.9-0.7c-0.5-0.5-0.8-1.1-0.8-1.8c0-0.7,0.3-1.3,0.8-1.9c0.5-0.5,1.1-0.8,1.9-0.8h9.6c0.6,0,1.2-0.2,1.6-0.7         c0.5-0.4,0.7-1,0.7-1.7c0-0.7-0.2-1.2-0.7-1.7c-0.5-0.4-1-0.7-1.6-0.7h-9.6c-1,0-2,0.2-2.8,0.6c-0.9,0.4-1.6,0.9-2.3,1.6         c-0.7,0.7-1.2,1.5-1.6,2.3c-0.4,0.9-0.6,1.8-0.6,2.8c0,1.2,0.2,2.2,0.6,3.1c0.4,0.9,0.9,1.7,1.6,2.3c0.7,0.6,1.4,1.1,2.3,1.5         c0.9,0.3,1.8,0.5,2.8,0.5h5.2c0.9,0,1.6,0.3,2.2,0.9c0.6,0.6,0.9,1.3,0.9,2.3c0,0.8-0.3,1.6-0.9,2.2c-0.6,0.6-1.3,0.9-2.2,0.9         l-9.9,0c0,0,0,0,0,0v0c-0.6,0-1.2,0.2-1.6,0.7c-0.5,0.5-0.7,1-0.7,1.7c0,0.7,0.2,1.3,0.7,1.7c0.5,0.5,1,0.7,1.6,0.7v0c0,0,0,0,0,0         h9.9c1,0,2-0.2,3-0.6c1-0.4,1.8-1,2.5-1.7c0.7-0.7,1.3-1.6,1.7-2.5c0.4-0.9,0.6-1.9,0.6-3C480.2,167.7,480,166.7,479.6,165.7z"/>
    <path class="st1" d="M78.5,108.2c0.1,15.3,12.9,28.2,28.2,28.3c16,0.1,28.8-12.4,28.9-28.1c0.1-15.9-12.6-28.6-28.4-28.6         C91.4,79.8,78.5,92.6,78.5,108.2z"/>
    <path class="st1" d="M106.7,19c-48.9,0-88.6,39.7-88.6,88.6c0,48.9,39.7,88.6,88.6,88.6c48.9,0,88.6-39.7,88.6-88.6         C195.3,58.6,155.7,19,106.7,19z M135.6,74.7V59.3c0.1-5,3.2-8.5,7.6-8.5c4.3-0.1,7.6,3.7,7.6,8.6c0,16.6,0.1,33.1,0,49.6         c-0.1,22.9-19.4,42.4-42.3,42.7c-25.8,0.4-45.6-19.4-45.2-45.1c0.3-21.1,18.1-40.2,39-41.9c11.6-1,22,1.8,31.4,8.7         C134.1,73.7,134.6,74,135.6,74.7z M171.5,82c0.4,0.8,0.7,1.7,1,2.5c13.4,36.3-6.3,77.3-43.2,89.4c-7.1,2.2-11.5,3.2-22.2,3.5         c-34.4,0-63.6-25.1-68.7-58.9c-5.8-38.3,20.9-73.9,59.6-79.3c9.1-1.3,18.2-0.7,27.1,1.8c4.1,1.2,6.1,4.5,5.5,8.5         c-0.5,3.3-3.4,6.1-6.9,6.4c-1.2,0.1-2.5-0.1-3.7-0.4c-31.2-7-60.5,11.9-66.3,43.4c-5.5,30.1,15.7,58.4,45.2,62.6         c29.4,4.2,55-13.9,61.3-42.9c2.3-10.6,1-21-2.9-31.1c-1.7-4.3,0.2-8.4,4.2-10C165.5,76,169.6,77.7,171.5,82z"/>
</g>
</svg>