<svg id="Layer_1" data-name="Layer 1" xmlns="http://www.w3.org/2000/svg" viewBox="0 0 1220.68 254.91"><defs><style>.cls-1{fill:#ffffff;}.cls-2{fill:#40ad77;}</style></defs><title>xxArtboard 1</title><path class="cls-1" d="M300.84,121.3h52.87v70.9h-20L331.08,180c-6,8.21-15.62,13-33.25,13-38.65,0-49.47-23.83-49.47-59.88v-7.21c0-37.85,14.22-60.08,54.27-60.08,27,0,45.66,11.82,49.47,37.65l-27,4c-1.4-14.62-9.61-19.43-22.63-19.43-23.63,0-28.64,15-28.64,37.65v7.21c0,24,5.41,38.05,28.64,38.05,16.42,0,26.24-7,27.64-26.24v-2.8H300.84Z"/><path class="cls-1" d="M424.61,183.38C419,189,410.59,193,397.37,193c-19.83,0-26-11-26-30V102.88H395V159c0,7.61,2.2,13.82,12.42,13.82,11.22,0,16.62-3.8,17.22-17.62V102.88h23.83V192.2H424.61Z"/><path class="cls-1" d="M462.86,69h23.83V92.46H462.86Zm0,33.85h23.83V192.2H462.86Z"/><path class="cls-1" d="M555.18,182.58c-4.81,6-12.22,10.41-25.83,10.41-26.24,0-32-17.62-32-42.86v-5.21c0-23.23,7.41-43.46,32.24-43.46,12.82,0,20,3.6,25.63,9.41V60.82h23.63V192.2H555.18Zm0-31.64v-7.61c0-14.22-4.21-21-18.63-21-12.82,0-15.42,9-15.42,24.23v2c0,15.62,1.6,24.23,15.42,24.23C550.57,172.77,555.18,164.56,555.18,150.94Z"/><path class="cls-1" d="M591.83,149.94v-5c0-27.24,14-43.46,41.26-43.46,26.64,0,38.25,14.42,38.25,40.05v13.22H615.26c.8,13.22,4.61,19.63,17.42,19.63,12.22,0,14.82-3.2,16.22-10l22.43,3.4c-3,12-12.42,25.23-38.25,25.23C603,193,591.83,176.78,591.83,149.94Zm23.63-12.42h32.84c-.4-10.61-3.6-16.22-15.62-16.22C620.47,121.3,616.46,126.91,615.46,137.52Z"/><path class="cls-1" d="M682.35,154.54l27-2.8c2.6,12.82,8.41,19.43,27.84,19.43,14.42,0,23.83-3.81,23.83-15.22s-10.21-13.42-28.84-17.62c-23-5-44.06-10.41-44.06-37,0-19.83,13.22-35.45,48.27-35.45,27.84,0,43.26,11.42,48.67,33l-27.84,3.6c-2-9.81-7.61-14.42-20.83-14.42-16.82,0-22.83,4.41-22.83,12.82,0,8.81,7.81,11.22,26,15.42,29.44,6.61,46.86,12.62,46.86,39.85,0,24.83-22,37-49.47,37C699.77,193.2,687.76,177.18,682.35,154.54Z"/><path class="cls-1" d="M799.91,102.88h23.83v8.61c5.21-5.61,13.62-10,26.44-10,12.62,0,17.22,3.8,21.63,11,5.41-6.81,14.22-11,30-11,19.83,0,25.23,11,25.23,30V192.2H903.25V135.92c0-7.41-1-13.62-11.42-13.62-11.42,0-16.42,4.61-16.42,19.23V192.2H851.58V135.92c0-7.41-1-13.62-11.42-13.62-11.82,0-16.42,4.61-16.42,20.43V192.2H799.91Z"/><path class="cls-1" d="M944.51,69h23.83V92.46H944.51Zm0,33.85h23.83V192.2H944.51Z"/><path class="cls-1" d="M980.15,102.88h16V77.64h23.63v25.23h20.43V124.3h-20.43v34.25c0,10,1.8,12.82,12,12.82h8.41V192.2H1026c-23.83,0-29.84-8.21-29.84-30.24V124.3h-16Z"/><path class="cls-1" d="M1054.85,60.82h23.83v51.07c5.61-5.81,14.22-10.41,27.44-10.41,19.83,0,26.24,11,26.24,30V192.2h-23.83V135.92c0-7.41-2-13.62-12.42-13.62-11.82,0-17.42,4.61-17.42,20.43V192.2h-23.83Z"/><path class="cls-1" d="M1141.57,170.57l24-6.21c1.8,7.61,4.81,11,17.42,11,9,0,13.62-2.2,13.62-8,0-6-3.4-8-16.62-10.81-20-3.8-34.25-8.81-34.25-27.24,0-13,8.61-27.84,36.85-27.84,21.63,0,33.25,8,37.25,21.63l-23.23,7c-1.2-6.61-4.61-9.81-14-9.81-9.61,0-12.82,3.4-12.82,7.41,0,5.61,2.6,6.81,17.62,10,18.42,4,33.25,8.41,33.25,27,0,21.23-18.63,28.24-37.65,28.24C1159.79,193,1146.78,187,1141.57,170.57Z"/><path class="cls-2" d="M110.37,254.91,0,191.18V63.72L110.37,0,220.75,63.72V191.18Zm-90.2-75.37,90.2,52.08,90.21-52.08V75.37L110.37,23.29,20.17,75.37Z"/><path class="cls-2" d="M164.22,90.34l6.15-23-23,6.15,6.07,6.06-37,37A12.51,12.51,0,0,0,99.46,133.6L51,182l4.68,4.68,48.39-48.39a12.51,12.51,0,0,0,17.09-17.09l36.94-36.94Z"/></svg>